<?xml version="1.0" encoding="utf-8"?>
<!-- Generator: Adobe Illustrator 23.0.1, SVG Export Plug-In . SVG Version: 6.00 Build 0)  -->
<svg version="1.1" id="Capa_1" xmlns="http://www.w3.org/2000/svg" xmlns:xlink="http://www.w3.org/1999/xlink" x="0px" y="0px"
	 viewBox="0 0 511 511" style="enable-background:new 0 0 511 511;" xml:space="preserve">
<g>
	<path d="M436.2,74.8C387.9,26.6,323.7,0,255.5,0S123.1,26.6,74.8,74.8C26.6,123.1,0,187.3,0,255.5s26.6,132.4,74.8,180.7
		c48.3,48.3,112.4,74.8,180.7,74.8s132.4-26.6,180.7-74.8c48.3-48.3,74.8-112.4,74.8-180.7S484.4,123.1,436.2,74.8z M479.2,344H263
		v-25h224.6C485.3,327.5,482.5,335.8,479.2,344z M23.4,319H248v25H31.8C28.5,335.8,25.7,327.5,23.4,319z M184,232.7V304h-17v-58.5
		C172.8,241.2,178.5,237,184,232.7z M216,205.8V304h-17v-83.4C204.9,215.7,210.6,210.8,216,205.8z M344,245.5V304h-17v-71.3
		C332.5,237,338.2,241.2,344,245.5z M374,265.9c0.7,0.4,1.3,0.9,2,1.3V304h-17v-48C363.9,259.3,368.9,262.7,374,265.9z M443.1,304
		H423v-9.7C429.8,297.8,436.5,301.1,443.1,304z M408,304h-17v-27.5c5.6,3.3,11.3,6.6,17,9.8V304z M312,304h-17v-98.2
		c5.4,4.9,11.1,9.9,17,14.8V304z M280,191.5V304h-17V173.2C268.2,179.2,273.9,185.3,280,191.5L280,191.5z M248,304h-17V191.5l0,0
		c6.1-6.2,11.8-12.3,17-18.3V304z M152,304h-17v-36.8c0.7-0.4,1.4-0.9,2-1.3c5.1-3.3,10.1-6.6,15-9.9V304z M120,304h-17v-17.7
		c5.7-3.2,11.4-6.5,17-9.8V304z M88,304H67.9c6.6-2.9,13.3-6.2,20.1-9.7V304z M85.4,85.4C130.9,40,191.3,15,255.5,15
		s124.6,25,170.1,70.4C471,130.9,496,191.3,496,255.5c0,16.4-1.6,32.5-4.8,48.2c-22.3-2.4-65.1-22.1-109.1-50.4
		c-8.9-5.7-17.5-11.6-25.8-17.5c-0.3-0.2-0.5-0.4-0.8-0.6c-10.8-7.7-21-15.5-30.6-23.4c-0.4-0.4-0.8-0.7-1.3-1
		c-25.5-21-46.4-42.2-60.6-61.7v-13.6c0-4.1-3.4-7.5-7.5-7.5s-7.5,3.4-7.5,7.5v13.6c-14.2,19.5-35.1,40.7-60.6,61.7
		c-0.5,0.3-0.9,0.6-1.3,1c-9.6,7.9-19.9,15.7-30.6,23.4c-0.3,0.2-0.6,0.4-0.8,0.6c-8.3,5.9-16.9,11.8-25.8,17.5
		c-44,28.4-86.7,48-109.1,50.4C16.6,288,15,271.9,15,255.5C15,191.3,40,130.9,85.4,85.4z M425.6,425.6
		C380.1,471,319.7,496,255.5,496s-124.6-25-170.1-70.4c-19.7-19.7-35.5-42.2-47.2-66.6H248v9h-24.5c-4.1,0-7.5,3.4-7.5,7.5
		s3.4,7.5,7.5,7.5h56c4.1,0,7.5-3.4,7.5-7.5s-3.4-7.5-7.5-7.5H263v-9h209.7C461.1,383.4,445.2,405.9,425.6,425.6z"/>
	<path d="M207.5,111h64h16h112c4.1,0,7.5-3.4,7.5-7.5c0-17.4-14.1-31.5-31.5-31.5c-1.4,0-2.8,0.1-4.2,0.3c-9-10.3-22-16.3-35.8-16.3
		c-11.9,0-23.3,4.5-32,12.4c-8.7-8-20-12.4-32-12.4c-11.9,0-23,4.3-31.7,12.3c-1.5-0.2-2.9-0.3-4.3-0.3c-19.6,0-35.5,15.9-35.5,35.5
		C200,107.6,203.4,111,207.5,111z M335.5,71c10.6,0,20.6,5.2,26.7,14c1.9,2.7,5.3,3.9,8.4,2.9c1.9-0.6,3.4-0.9,4.9-0.9
		c6.4,0,12,3.7,14.7,9H287.5h-6.7c2.7-5.3,8.3-9,14.7-9c1.5,0,3,0.3,4.9,0.9c3.1,1,6.5-0.2,8.4-2.9C314.9,76.2,324.9,71,335.5,71z
		 M235.5,83c1.5,0,3,0.2,4.9,0.7c2.7,0.7,5.5-0.2,7.3-2.2C254,74.7,262.4,71,271.5,71c4.7,0,9.2,1,13.4,2.9
		c-9.8,3.5-17.4,11.9-20,22.1h-48.5C219.4,88.4,226.8,83,235.5,83z"/>
	<path d="M95.5,167h104c4.1,0,7.5-3.4,7.5-7.5c0-26.2-21.3-47.5-47.5-47.5c-11.9,0-23,4.3-31.7,12.3c-1.5-0.2-2.9-0.3-4.3-0.3
		c-19.6,0-35.5,15.9-35.5,35.5C88,163.6,91.4,167,95.5,167z M123.5,139c1.5,0,3,0.2,4.9,0.7c2.7,0.7,5.5-0.2,7.3-2.2
		c6.3-6.8,14.7-10.5,23.8-10.5c15.3,0,28.2,10.7,31.6,25h-86.7C107.4,144.4,114.8,139,123.5,139z"/>
	<path d="M367.8,154.6c-0.9-0.1-1.8-0.1-2.7-0.1c-16,0-29,13-29,29c0,4.1,3.4,7.5,7.5,7.5h80c4.1,0,7.5-3.4,7.5-7.5
		c0-21.1-17.2-38.3-38.3-38.3C383.4,145.2,374.7,148.5,367.8,154.6z M414.8,176h-61.6c2.5-3.9,6.9-6.5,11.9-6.5c1,0,2.1,0.2,3.4,0.5
		c2.7,0.7,5.5-0.2,7.3-2.2c4.5-4.9,10.5-7.5,17-7.5C402.9,160.2,411.6,166.8,414.8,176z"/>
	<path d="M319.5,368h-16c-4.1,0-7.5,3.4-7.5,7.5s3.4,7.5,7.5,7.5h16c4.1,0,7.5-3.4,7.5-7.5S323.6,368,319.5,368z"/>
	<path d="M199.5,368h-16c-4.1,0-7.5,3.4-7.5,7.5s3.4,7.5,7.5,7.5h16c4.1,0,7.5-3.4,7.5-7.5S203.6,368,199.5,368z"/>
	<path d="M279.5,392h-32c-4.1,0-7.5,3.4-7.5,7.5s3.4,7.5,7.5,7.5h32c4.1,0,7.5-3.4,7.5-7.5S283.6,392,279.5,392z"/>
	<path d="M271.5,416h-40c-4.1,0-7.5,3.4-7.5,7.5s3.4,7.5,7.5,7.5h40c4.1,0,7.5-3.4,7.5-7.5S275.6,416,271.5,416z"/>
	<path d="M231,399.5c0-4.1-3.4-7.5-7.5-7.5h-8c-4.1,0-7.5,3.4-7.5,7.5s3.4,7.5,7.5,7.5h8C227.6,407,231,403.6,231,399.5z"/>
</g>
</svg>
