<?xml version="1.0" encoding="utf-8"?>
<!-- Generator: Adobe Illustrator 23.0.1, SVG Export Plug-In . SVG Version: 6.00 Build 0)  -->
<svg version="1.1" id="Capa_1" xmlns="http://www.w3.org/2000/svg" xmlns:xlink="http://www.w3.org/1999/xlink" x="0px" y="0px"
	 viewBox="0 0 60 60" style="enable-background:new 0 0 60 60;" xml:space="preserve">
<g>
	<path d="M35.5,24h2c0.6,0,1-0.4,1-1s-0.4-1-1-1h-2c-0.6,0-1,0.4-1,1S34.9,24,35.5,24z"/>
	<path d="M32,31c-0.4,0-0.9-0.1-1.3-0.2c-0.5-0.2-1.1,0.1-1.3,0.6c-0.2,0.5,0.1,1.1,0.6,1.3c0.6,0.2,1.3,0.4,2,0.4h0.4
		c0.6,0,1-0.4,1-1s-0.4-1-1-1H32V31z"/>
	<path d="M29.6,24.7c0.2,0,0.4,0,0.5-0.2c0.4-0.3,0.9-0.4,1.5-0.5c0.5-0.1,0.9-0.6,0.9-1.1S31.9,22,31.4,22
		c-0.8,0.1-1.6,0.4-2.3,0.8c-0.5,0.3-0.6,0.9-0.3,1.4C29,24.5,29.3,24.7,29.6,24.7z"/>
	<path d="M36,40c-0.1,0-0.2,0-0.3,0c-0.6,0-1,0.5-1,1s0.5,1,1,1l0,0h2c0.6,0,1-0.4,1-1s-0.4-1-1-1H36z"/>
	<path d="M43.5,24c0.6,0,1-0.4,1-1s-0.4-1-1-1h-2c-0.6,0-1,0.4-1,1s0.4,1,1,1H43.5z"/>
	<path d="M47.8,40c-0.6,0-1,0.4-1,1s0.4,1,1,1h2c0.6,0,1-0.4,1-1s-0.4-1-1-1H47.8z"/>
	<path d="M51.4,32c0-0.6-0.4-1-1-1h-2c-0.6,0-1,0.4-1,1c0,0.6,0.4,1,1,1h2C50.9,33,51.4,32.6,51.4,32z"/>
	<path d="M41.8,42h2c0.6,0,1-0.4,1-1s-0.4-1-1-1h-2c-0.6,0-1,0.4-1,1S41.2,42,41.8,42z"/>
	<path d="M45.4,32c0-0.6-0.4-1-1-1h-2c-0.6,0-1,0.4-1,1c0,0.6,0.4,1,1,1h2C44.9,33,45.4,32.6,45.4,32z"/>
	<path d="M36.4,31c-0.6,0-1,0.4-1,1c0,0.6,0.4,1,1,1h2c0.6,0,1-0.4,1-1s-0.4-1-1-1H36.4z"/>
	<path d="M24.1,58h-2c-0.6,0-1,0.4-1,1s0.4,1,1,1h2c0.6,0,1-0.4,1-1S24.6,58,24.1,58z"/>
	<path d="M18.1,58h-2c-0.6,0-1,0.4-1,1s0.4,1,1,1h2c0.6,0,1-0.4,1-1S18.6,58,18.1,58z"/>
	<path d="M52.6,54.5c-0.5-0.1-1.1,0.2-1.2,0.8c-0.1,0.5-0.3,1-0.7,1.4c-0.3,0.4-0.3,1.1,0.2,1.4c0.2,0.1,0.4,0.2,0.6,0.2
		c0.3,0,0.6-0.1,0.8-0.4c0.5-0.6,0.9-1.4,1-2.2C53.5,55.2,53.1,54.6,52.6,54.5z"/>
	<path d="M51.5,52.7c0.2,0,0.4-0.1,0.6-0.2c0.4-0.3,0.5-1,0.2-1.4c-0.5-0.6-1.2-1.2-1.9-1.5c-0.5-0.2-1.1,0-1.3,0.5s0,1.1,0.5,1.3
		s0.9,0.6,1.2,1C50.9,52.6,51.2,52.7,51.5,52.7z"/>
	<path d="M47.1,50c0-0.6-0.4-1-1-1h-2c-0.6,0-1,0.4-1,1s0.4,1,1,1h2C46.6,51,47.1,50.6,47.1,50z"/>
	<path d="M48,58h-1.9c-0.6,0-1,0.4-1,1s0.4,1,1,1h2v-1v1c0.6,0,1-0.4,1-1C49,58.4,48.5,58,48,58z"/>
	<path d="M59.4,35.6c-0.1-0.5-0.6-0.9-1.1-0.8c-0.5,0.1-0.9,0.6-0.8,1.1c0,0.2,0,0.4,0,0.6c0,0.3,0,0.7-0.1,1
		c-0.2,0.5,0.1,1.1,0.7,1.2c0.1,0,0.2,0,0.3,0c0.4,0,0.8-0.3,1-0.7c0.1-0.5,0.2-1,0.2-1.5C59.5,36.2,59.5,35.9,59.4,35.6z"/>
	<path d="M28,29.9c0.5-0.2,0.8-0.7,0.6-1.3c-0.1-0.4-0.2-0.7-0.2-1.1c0-0.2,0-0.3,0-0.4c0.1-0.5-0.3-1-0.9-1.1s-1,0.3-1.1,0.9
		c0,0.2,0,0.5,0,0.7c0,0.6,0.1,1.2,0.3,1.7c0.1,0.4,0.5,0.7,1,0.7C27.8,29.9,27.9,29.9,28,29.9z"/>
	<path d="M56.7,31.7C56,31.3,55.2,31,54.4,31c-0.5,0-1,0.4-1.1,0.9c0,0.6,0.4,1,0.9,1.1c0.5,0,1,0.2,1.5,0.5
		c0.2,0.1,0.3,0.1,0.5,0.1c0.3,0,0.7-0.2,0.9-0.5C57.4,32.6,57.2,32,56.7,31.7z"/>
	<path d="M55.3,39.7C54.9,39.9,54.5,40,54,40h-0.2c-0.6,0-1,0.4-1,1s0.4,1,1,1H54c0.7,0,1.5-0.1,2.1-0.4c0.5-0.2,0.7-0.8,0.5-1.3
		C56.4,39.8,55.8,39.5,55.3,39.7z"/>
	<path d="M32.6,44.8c0.1-0.5,0.3-1,0.6-1.4s0.2-1.1-0.2-1.4c-0.4-0.3-1.1-0.2-1.4,0.2c-0.5,0.7-0.8,1.4-1,2.2
		c-0.1,0.5,0.3,1.1,0.8,1.2c0.1,0,0.1,0,0.2,0C32,45.7,32.5,45.3,32.6,44.8z"/>
	<path d="M34.1,50.6c0.4,0,0.7-0.2,0.9-0.6c0.2-0.5,0-1.1-0.5-1.3s-0.9-0.5-1.2-0.9c-0.4-0.4-1-0.5-1.4-0.1s-0.5,1-0.1,1.4
		c0.5,0.6,1.2,1.1,1.9,1.5C33.8,50.6,34,50.6,34.1,50.6z"/>
	<path d="M30.1,58h-2c-0.6,0-1,0.4-1,1s0.4,1,1,1h2c0.6,0,1-0.4,1-1S30.6,58,30.1,58z"/>
	<path d="M36.1,58h-2c-0.6,0-1,0.4-1,1s0.4,1,1,1h2c0.6,0,1-0.4,1-1S36.6,58,36.1,58z"/>
	<path d="M41.1,50c0-0.6-0.4-1-1-1h-2c-0.6,0-1,0.4-1,1s0.4,1,1,1h2C40.6,51,41.1,50.6,41.1,50z"/>
	<path d="M42.1,58h-2c-0.6,0-1,0.4-1,1s0.4,1,1,1h2c0.6,0,1-0.4,1-1S42.6,58,42.1,58z"/>
	<path d="M21,29c-2.3-2.6-5.3-4-8.5-4S6.2,26.4,4,29c-4.6,5.2-4.6,13.7,0,18.9l8.5,9.6l8.5-9.6C25.6,42.7,25.6,34.2,21,29z M12.5,43
		c-3.3,0-6-2.7-6-6s2.7-6,6-6s6,2.7,6,6S15.8,43,12.5,43z"/>
	<path d="M48.7,24.5l6.5-7.3c3.5-3.9,3.5-10.3,0-14.2c-1.7-1.9-4-3-6.5-3c-2.4,0-4.7,1.1-6.5,3c-3.5,3.9-3.5,10.3,0,14.2L48.7,24.5z
		 M49,4c3,0,5.5,2.5,5.5,5.5S52,15,49,15s-5.5-2.5-5.5-5.5S46,4,49,4z"/>
</g>
</svg>
