<?xml version="1.0" encoding="utf-8"?>
<!-- Generator: Adobe Illustrator 23.0.1, SVG Export Plug-In . SVG Version: 6.00 Build 0)  -->
<svg version="1.1" id="Capa_1" xmlns="http://www.w3.org/2000/svg" xmlns:xlink="http://www.w3.org/1999/xlink" x="0px" y="0px"
	 viewBox="0 0 480 480" style="enable-background:new 0 0 480 480;" xml:space="preserve">
<g>
	<g>
		<path d="M472,220h-71.1c6.4-21.3,8.5-43.6,6.1-65.7c2-6.9,0.8-14.4-3.5-20.2C382.8,43.9,292.9-12.4,202.6,8.3
			C176,14.4,151.2,27,130.5,44.9c-4.5-5.6-11.3-8.8-18.5-8.8H48c-13.3,0-24,10.7-24,24s10.7,24,24,24h9.4
			C53,96.5,59.5,110.2,72,114.6c2.6,0.9,5.3,1.4,8,1.4h1.8c-11.1,30.8-12.8,64.2-4.9,96H8c-4.4,0-8,3.6-8,8v248c0,4.4,3.6,8,8,8h464
			c4.4,0,8-3.6,8-8V228C480,223.6,476.4,220,472,220z M392,172c0,16.3-2.7,32.5-7.9,48H384c-4.4,0-8,3.6-8,8v11.8
			c-6.6,13.2-15.2,25.4-25.3,36.2h-36.4c24.6-17.5,42.1-43.2,49.6-72.4c13-2.1,21.9-14.5,19.7-27.5c-0.2-1.4-0.6-2.8-1-4.1h1.4
			c2.7,0,5.4-0.5,7.9-1.4C391.9,171.1,392,171.5,392,172z M376,270.6V332h-16v-42.5C365.8,283.6,371.1,277.3,376,270.6z M240,323.9
			V308c0-4.4-3.6-8-8-8h-73.8c-18.5-11.9-34.3-27.7-46.2-46.2V220c0-4.4-3.6-8-8-8H93.4c-3.6-13-5.4-26.5-5.4-40
			c0-19.2,3.7-38.2,10.8-56H125c-31,63.4-4.8,140,58.6,171c27.5,13.4,58.8,16.6,88.4,8.9v24.6C261.5,322.8,250.8,323.9,240,323.9z
			 M272,337v51h-32v-48C250.7,340,261.5,339,272,337z M132.4,301c-2.7,1.3-4.4,4.1-4.4,7.1v64h-16v-91.3
			C118.2,288,125.1,294.8,132.4,301z M133.4,206.5c-9.7-30.2-6.2-63,9.7-90.5h0.9c13.3,0,24-10.7,24-24c0-1.7-0.2-3.5-0.6-5.1
			C214.3,46.7,284.9,52.2,325,99.1c6.5,7.6,11.9,15.9,16.1,24.9h-27.6c-26.6-40.5-81.1-51.8-121.6-25.2s-51.8,81.1-25.2,121.6
			s81.1,51.8,121.6,25.2c15.3-10,27-24.6,33.7-41.6h25.4c-9.9,32.8-34.3,59.4-66.2,72H280c-2.2,0-4.3,0.9-5.8,2.5
			C215.4,297.5,152.4,265.3,133.4,206.5z M265.4,156H264c-13.3,0-24,10.7-24,24s10.7,24,24,24h40.5c-17.6,35.8-60.8,50.6-96.6,33.1
			c-35.8-17.6-50.6-60.8-33.1-96.6c17.6-35.8,60.8-50.6,96.6-33.1c8.3,4.1,15.8,9.7,22,16.6H288c-13.3,0-24,10.7-24,24
			C264,150.7,264.5,153.4,265.4,156z M390.6,152.3c-1.4,2.3-3.9,3.7-6.6,3.7h-24c-4.4,0-8,3.6-8,8s3.6,8,8,8s8,3.6,8,8s-3.6,8-8,8
			h-96c-4.4,0-8-3.6-8-8s3.6-8,8-8h24c4.4,0,8-3.6,8-8s-3.6-8-8-8s-8-3.6-8-8s3.6-8,8-8h96c1.8,0,3.6,0.7,5,1.9
			C389.7,145.3,390.1,148.8,390.6,152.3z M135.9,61.5c60.9-57.5,157-54.8,214.5,6.1c15.2,16.1,26.8,35.4,33.7,56.5h-25.5
			C332.2,58.7,257.8,27,192.4,53.4c-12.2,4.9-23.5,11.6-33.6,20c-4.2-3.4-9.4-5.2-14.8-5.2h-9.4C135.4,65.9,135.8,63.7,135.9,61.5z
			 M80,100c-4.4,0-8-3.6-8-8s3.6-8,8-8s8-3.6,8-8s-3.6-8-8-8H48c-4.4,0-8-3.6-8-8s3.6-8,8-8h64c4.4,0,8,3.6,8,8s-3.6,8-8,8
			s-8,3.6-8,8s3.6,8,8,8h32c4.4,0,8,3.6,8,8s-3.6,8-8,8H80z M464,460H16V228h80v152c0,4.4,3.6,8,8,8h32c4.4,0,8-3.6,8-8v-64h80v80
			c0,4.4,3.6,8,8,8h48c4.4,0,8-3.6,8-8V292h56v48c0,4.4,3.6,8,8,8h32c4.4,0,8-3.6,8-8V236h72V460z"/>
	</g>
</g>
<g>
	<g>
		<rect x="32" y="244" width="16" height="16"/>
	</g>
</g>
<g>
	<g>
		<rect x="64" y="244" width="16" height="16"/>
	</g>
</g>
<g>
	<g>
		<rect x="160" y="332" width="16" height="16"/>
	</g>
</g>
<g>
	<g>
		<rect x="192" y="332" width="16" height="16"/>
	</g>
</g>
<g>
	<g>
		<rect x="32" y="276" width="16" height="16"/>
	</g>
</g>
<g>
	<g>
		<rect x="64" y="276" width="16" height="16"/>
	</g>
</g>
<g>
	<g>
		<rect x="32" y="308" width="16" height="16"/>
	</g>
</g>
<g>
	<g>
		<rect x="64" y="308" width="16" height="16"/>
	</g>
</g>
<g>
	<g>
		<rect x="64" y="340" width="16" height="16"/>
	</g>
</g>
<g>
	<g>
		<rect x="432" y="252" width="16" height="16"/>
	</g>
</g>
<g>
	<g>
		<rect x="408" y="284" width="16" height="16"/>
	</g>
</g>
<g>
	<g>
		<rect x="192" y="364" width="16" height="16"/>
	</g>
</g>
<g>
	<g>
		<rect x="160" y="396" width="16" height="16"/>
	</g>
</g>
<g>
	<g>
		<rect x="192" y="420" width="16" height="16"/>
	</g>
</g>
<g>
	<g>
		<rect x="432" y="316" width="16" height="16"/>
	</g>
</g>
<g>
	<g>
		<rect x="432" y="348" width="16" height="16"/>
	</g>
</g>
<g>
	<g>
		<rect x="400" y="364" width="16" height="16"/>
	</g>
</g>
<g>
	<g>
		<rect x="304" y="316" width="16" height="16"/>
	</g>
</g>
<g>
	<g>
		<rect x="320" y="348" width="16" height="16"/>
	</g>
</g>
</svg>
