<?xml version="1.0" encoding="utf-8"?>
<!-- Generator: Adobe Illustrator 23.0.1, SVG Export Plug-In . SVG Version: 6.00 Build 0)  -->
<svg version="1.1" id="Capa_1" xmlns="http://www.w3.org/2000/svg" xmlns:xlink="http://www.w3.org/1999/xlink" x="0px" y="0px"
	 viewBox="0 0 60.3 60.3" style="enable-background:new 0 0 60.3 60.3;" xml:space="preserve">
<g>
	<g>
		<path d="M27,22.1c0.1,0.1,0.2,0.2,0.3,0.3c0.1,3.2-0.2,8.2-0.3,9.7l8.9-0.1c0-0.2,0.3-2.8,0.4-5.9c0.6,0.5,1.1,1,1.7,1.5
			c1.9,1.7,4.3,0,3.9-2.3c-0.3-2.1-0.4-4.2-0.9-6.2c-0.7-2.7-4.6-1.9-4.6,0.6c-0.1-0.1-0.1-0.1-0.2-0.2c-0.1-0.1-0.2-0.2-0.3-0.3
			c-0.7-1.8-2.5-3-4.5-2.8c-0.8,0.1-1.5,0.3-2.1,0.7C27.4,14.2,26,11,25,7.5c-0.8-2.9-5.2-1.2-4.4,1.7C22,14,24.1,18.3,27,22.1z"/>
		<ellipse cx="11.1" cy="37.4" rx="2.8" ry="0.7"/>
		<ellipse cx="27.3" cy="37.4" rx="2.8" ry="0.7"/>
		<path d="M59.6,33.2h-59L0,42.6h60.3L59.6,33.2z M11.4,39.1c-3.3,0-5.9-0.7-5.9-1.6c0-0.9,2.6-1.6,5.9-1.6s5.9,0.7,5.9,1.6
			C17.3,38.4,14.7,39.1,11.4,39.1z M27.3,39.1c-3.3,0-5.9-0.7-5.9-1.6c0-0.9,2.6-1.6,5.9-1.6s5.9,0.7,5.9,1.6
			C33.2,38.4,30.5,39.1,27.3,39.1z M37.8,39.8h-1.1v-5.2h1.1V39.8z M41,39.8h-1.1v-5.2H41V39.8z M44.4,39.8h-1.1v-5.2h1.1V39.8z
			 M47.7,39.8h-1.1v-5.2h1.1V39.8z M50.8,39.8h-1.1v-5.2h1.1V39.8z M53.8,39.8h-1.1v-5.2h1.1V39.8z"/>
		<polygon points="0,43.2 0.5,54.7 59.6,54.7 60.3,43.2 		"/>
		<rect x="36.9" y="35.4" width="0.7" height="1.2"/>
		<rect x="40" y="37.7" width="0.7" height="1.2"/>
		<rect x="43.4" y="35.1" width="0.7" height="1.2"/>
		<rect x="46.7" y="36.5" width="0.7" height="1.2"/>
		<rect x="49.9" y="35.1" width="0.7" height="1.2"/>
		<rect x="52.8" y="34.9" width="0.7" height="1.2"/>
		<path d="M28.8,14.3L28.8,14.3c0,0.6,0.5,1.1,1,1.1s1-0.4,1-1c0.8,1.6,2.5,2.5,4.3,2.2c1.4-0.2,2.5-1.1,3.1-2.2c0,0.5,0.5,1,1,1
			c0.6,0,1-0.5,1-1l0,0c0.4,0,0.7-0.3,0.7-0.7V11c0-0.4-0.3-0.7-0.7-0.7l0,0c0-0.4-0.2-0.7-0.5-0.9c-0.7-2.2-2.8-3.8-5.2-3.8
			S30,7.2,29.3,9.4c-0.3,0.2-0.5,0.5-0.5,0.9l0,0c-0.4,0-0.7,0.3-0.7,0.7v2.6C28.1,14,28.4,14.3,28.8,14.3z M34.5,6.6
			c1.9,0,3.5,1.2,4.2,2.8c-0.3,0.2-0.4,0.5-0.4,0.8v0.4C37.5,9,35.8,8.1,34,8.4c-1.4,0.2-2.5,1.1-3.1,2.2v-0.4
			c0-0.3-0.2-0.6-0.4-0.8C31,7.8,32.6,6.6,34.5,6.6z"/>
	</g>
</g>
</svg>
