<?xml version="1.0" encoding="utf-8"?>
<!-- Generator: Adobe Illustrator 23.0.1, SVG Export Plug-In . SVG Version: 6.00 Build 0)  -->
<svg version="1.1" id="Capa_1" xmlns="http://www.w3.org/2000/svg" xmlns:xlink="http://www.w3.org/1999/xlink" x="0px" y="0px"
	 viewBox="0 0 362.8 362.8" style="enable-background:new 0 0 362.8 362.8;" xml:space="preserve">
<g>
	<path d="M260.9,145c-2.7,0-5.1,1.4-6.5,3.7L207,230c-1.4,2.3-1.4,5.2,0,7.5c1.3,2.3,3.8,3.8,6.5,3.8h95c2.7,0,5.2-1.4,6.5-3.8
		c1.3-2.3,1.3-5.2,0-7.5l-47.5-81.3C266.1,146.4,263.6,145,260.9,145z M226.5,226.3l34.4-59l34.4,59H226.5L226.5,226.3z"/>
	<path d="M355.3,254.7H179.7L261,115.5l62.9,107.8c2.1,3.6,6.7,4.8,10.3,2.7c3.6-2.1,4.8-6.7,2.7-10.3L267.4,96.8c0,0,0-0.1-0.1-0.1
		c-0.1-0.2-0.3-0.4-0.4-0.6c0-0.1-0.1-0.1-0.1-0.2c-0.2-0.2-0.4-0.5-0.6-0.7c0,0-0.1,0-0.1-0.1c-0.2-0.2-0.4-0.3-0.6-0.5
		c-0.1-0.1-0.1-0.1-0.2-0.1c-0.2-0.1-0.4-0.3-0.6-0.4c-0.1,0-0.1-0.1-0.2-0.1c-0.3-0.1-0.5-0.3-0.8-0.4l0,0
		c-0.3-0.1-0.5-0.2-0.8-0.3c-0.1,0-0.1,0-0.2-0.1c-0.2-0.1-0.4-0.1-0.7-0.1c-0.1,0-0.2,0-0.2,0c-0.3,0-0.6-0.1-0.9-0.1H101.8
		c-2.7,0-5.1,1.4-6.5,3.7L1,258.4c-1.4,2.3-1.4,5.2,0,7.5c1.3,2.3,3.8,3.8,6.5,3.8H94l0,0l0,0h36l0,0l0,0h36.6h188.7
		c4.1,0,7.5-3.4,7.5-7.5S359.4,254.7,355.3,254.7z M162.3,254.7H143l69.4-119.5c2.1-3.6,0.9-8.2-2.7-10.3c-3.6-2.1-8.2-0.9-10.3,2.7
		l-73.8,127H107L192.2,108h55.6L162.3,254.7z M106.1,108.1h34.1L74.8,220.7c-2.1,3.6-0.9,8.2,2.7,10.3c1.2,0.7,2.5,1,3.8,1
		c2.6,0,5.1-1.3,6.5-3.7l69.8-120.2H175L89.8,254.7H20.6L106.1,108.1z"/>
</g>
</svg>
